# xmcd CD database file
#
# Track frame offsets:
#	150
#	21059
#	38653
#	61628
#	84765
#	106152
#	129183
#	152723
#	169762
#	195105
#	214694
#	231733
#
# Disc length: 3393 seconds
#
# Revision: 1
# Processed by: cddbd v1.5.2PL0 Copyright (c) Steve Scherf et al.
# Submitted via: CDex 1.77
#
DISCID=850d3f0c
DTITLE=Various Artist - iRelax In Traffic
DYEAR=1900
DGENRE=New Age
TTITLE0=Whispers In the Moonlight - Omar
TTITLE1=Don Juan - Johannes Linstead
TTITLE2=Dream Spiral - Hilary Stagg
TTITLE3=Treasure Bay - Govi
TTITLE4=Walk In a Meadow - Bernward Koch
TTITLE5=Morning Celebration - Karunesh
TTITLE6=Stella Maris - 2002
TTITLE7=Gypsy Heart - Govi
TTITLE8=Dazzled By the Light - Karunesh
TTITLE9=Flight Being - Bernward Koch
TTITLE10=Earth Story - Nicholas Gunn
TTITLE11=Run Away With Me - Omar
EXTD=
EXTT0=
EXTT1=
EXTT2=
EXTT3=
EXTT4=
EXTT5=
EXTT6=
EXTT7=
EXTT8=
EXTT9=
EXTT10=
EXTT11=
PLAYORDER=
